<svg width="1080" height="1080" viewBox="0 0 1080 1080" fill="none" xmlns="http://www.w3.org/2000/svg">
<path d="M270.6 834.4C230 834.4 194.533 824.833 164.2 805.7C134.333 786.1 113.8 759.733 102.6 726.6L171.2 693.7C181 715.167 194.533 731.967 211.8 744.1C229.533 756.233 249.133 762.3 270.6 762.3C287.4 762.3 300.7 758.567 310.5 751.1C320.3 743.633 325.2 733.833 325.2 721.7C325.2 714.233 323.1 708.167 318.9 703.5C315.167 698.367 309.8 694.167 302.8 690.9C296.267 687.167 289.033 684.133 281.1 681.8L218.8 664.3C186.6 654.967 162.1 640.733 145.3 621.6C128.967 602.467 120.8 579.833 120.8 553.7C120.8 530.367 126.633 510.067 138.3 492.8C150.433 475.067 167 461.3 188 451.5C209.467 441.7 233.967 436.8 261.5 436.8C297.433 436.8 329.167 445.433 356.7 462.7C384.233 479.967 403.833 504.233 415.5 535.5L345.5 568.4C338.967 551.133 328 537.367 312.6 527.1C297.2 516.833 279.933 511.7 260.8 511.7C245.4 511.7 233.267 515.2 224.4 522.2C215.533 529.2 211.1 538.3 211.1 549.5C211.1 556.5 212.967 562.567 216.7 567.7C220.433 572.833 225.567 577.033 232.1 580.3C239.1 583.567 247.033 586.6 255.9 589.4L316.8 607.6C348.067 616.933 372.1 630.933 388.9 649.6C406.167 668.267 414.8 691.133 414.8 718.2C414.8 741.067 408.733 761.367 396.6 779.1C384.467 796.367 367.667 809.9 346.2 819.7C324.733 829.5 299.533 834.4 270.6 834.4ZM658.87 830.2C615.937 830.2 582.57 818.533 558.77 795.2C535.437 771.4 523.77 738.033 523.77 695.1V527.1H457.97V445.2H464.97C483.637 445.2 498.104 440.3 508.37 430.5C518.637 420.7 523.77 406.467 523.77 387.8V358.4H615.47V445.2H702.97V527.1H615.47V690.2C615.47 702.8 617.57 713.533 621.77 722.4C626.437 731.267 633.437 738.033 642.77 742.7C652.57 747.367 664.937 749.7 679.87 749.7C683.137 749.7 686.87 749.467 691.07 749C695.737 748.533 700.17 748.067 704.37 747.6V826C697.837 826.933 690.37 827.867 681.97 828.8C673.57 829.733 665.87 830.2 658.87 830.2ZM817.83 826V728H910.23V826H817.83Z" fill="#09090B"/>
</svg>
